<?xml version="1.0" standalone="no"?>
<!DOCTYPE svg PUBLIC "-//W3C//DTD SVG 20010904//EN"
 "http://www.w3.org/TR/2001/REC-SVG-20010904/DTD/svg10.dtd">
<svg version="1.0" xmlns="http://www.w3.org/2000/svg"
 width="853.000000pt" height="1280.000000pt" viewBox="0 0 853.000000 1280.000000"
 preserveAspectRatio="xMidYMid meet">
<g transform="translate(0.000000,1280.000000) scale(0.100000,-0.100000)"
fill="#000000" stroke="none">
<path d="M3520 12526 c0 -18 131 -214 213 -319 36 -45 167 -199 292 -342 280
-320 280 -320 269 -345 -5 -10 -81 -99 -169 -196 -335 -371 -441 -500 -559
-681 -257 -397 -387 -828 -387 -1288 0 -271 49 -476 149 -621 46 -67 155 -176
254 -253 76 -59 75 -48 11 -149 -185 -292 -323 -668 -390 -1067 -25 -154 -26
-530 0 -660 53 -267 148 -465 321 -667 36 -42 139 -155 228 -250 284 -302 489
-546 488 -580 -1 -7 -44 -62 -96 -123 -210 -242 -412 -532 -547 -785 -202
-381 -348 -840 -402 -1269 -23 -180 -17 -458 13 -577 51 -200 122 -337 377
-729 140 -214 265 -418 265 -432 0 -7 -9 -36 -20 -65 -11 -29 -20 -56 -20 -60
0 -14 48 -8 64 7 8 8 21 15 28 15 24 0 232 -407 314 -613 19 -49 48 -71 85
-65 16 3 14 14 -20 103 -63 167 -131 320 -232 526 l-97 197 47 104 c106 232
262 504 503 879 209 325 259 407 313 521 83 178 114 305 122 508 18 471 -176
1166 -466 1675 -39 68 -71 130 -71 139 0 9 37 55 81 104 217 233 313 381 384
595 48 144 65 256 72 459 6 196 -4 329 -43 530 -80 413 -262 822 -516 1157
-120 159 -354 396 -507 514 -22 17 -41 36 -41 42 0 30 208 256 343 372 56 49
179 147 272 218 263 200 359 307 421 471 72 189 93 481 55 752 -63 442 -218
814 -492 1174 l-62 80 42 57 c153 209 252 383 331 581 64 159 130 350 122 350
-4 0 -38 -78 -75 -173 -38 -94 -96 -226 -129 -292 -60 -121 -218 -367 -282
-440 l-36 -40 -42 45 c-124 131 -464 517 -541 613 -49 60 -118 154 -154 208
-63 95 -83 115 -83 85z m862 -1089 c14 -27 -2 -37 -46 -30 -47 7 -55 27 -26
58 22 24 24 24 43 8 10 -10 23 -26 29 -36z m-25 -91 c51 -8 97 -17 103 -21 14
-9 130 -206 130 -222 0 -19 -29 -17 -260 17 -270 39 -270 39 -270 52 0 10 132
163 155 180 14 11 37 10 142 -6z m-24 -286 c159 -23 294 -43 302 -46 16 -6
115 -242 115 -273 0 -17 -6 -21 -29 -21 -28 0 -834 114 -893 126 -16 3 -28 11
-28 18 0 13 159 210 188 233 8 7 25 11 36 8 12 -3 151 -23 309 -45z m439 -410
c9 0 34 -80 48 -154 14 -67 7 -77 -44 -70 -17 2 -278 27 -581 54 -608 55 -615
56 -615 72 0 13 125 203 150 228 16 16 49 12 526 -56 280 -40 512 -73 516 -74z
m-569 -229 c345 -32 630 -61 634 -65 18 -18 32 -240 15 -250 -9 -5 -1388 120
-1409 129 -21 8 -15 33 32 127 52 105 61 118 84 118 9 0 299 -27 644 -59z
m-42 -315 c372 -34 681 -66 687 -70 7 -4 12 -27 12 -50 0 -63 -29 -219 -43
-233 -10 -10 -168 6 -746 77 -403 49 -738 93 -744 99 -7 7 2 47 27 126 l37
115 47 0 c26 -1 351 -29 723 -64z m-122 -331 c389 -47 716 -87 729 -90 14 -3
22 -13 22 -25 0 -26 -48 -121 -89 -177 -26 -36 -37 -43 -65 -43 -46 0 -1345
159 -1357 166 -12 7 -10 75 5 159 13 77 21 95 39 95 6 0 328 -38 716 -85z
m-123 -310 c705 -85 684 -82 684 -97 0 -14 -59 -69 -193 -179 -83 -68 -113
-88 -130 -84 -12 3 -242 57 -510 120 -268 63 -492 117 -498 120 -10 7 -13 178
-2 188 9 10 -21 13 649 -68z m-157 -299 c244 -57 447 -108 453 -114 6 -6 -5
-23 -33 -48 -24 -22 -73 -67 -111 -101 -37 -35 -74 -63 -82 -63 -30 0 -641
163 -654 174 -13 13 -62 194 -62 232 0 19 5 24 23 24 13 0 223 -47 466 -104z
m-137 -295 c124 -33 245 -65 267 -71 23 -6 41 -15 41 -21 0 -6 -30 -45 -68
-87 -37 -42 -79 -92 -93 -111 -22 -27 -31 -33 -51 -28 -36 9 -249 216 -298
289 -38 57 -49 88 -32 88 4 0 109 -27 234 -59z m215 -585 c97 -79 130 -114
117 -125 -17 -15 -380 -171 -398 -171 -24 0 -16 22 52 145 64 116 129 215 141
215 5 0 44 -29 88 -64z m252 -230 c35 -35 62 -69 59 -76 -6 -18 -721 -331
-732 -320 -6 6 6 50 31 117 l39 108 260 117 c142 64 264 117 269 117 6 1 39
-28 74 -63z m198 -225 c35 -46 62 -88 60 -95 -4 -14 -995 -391 -1004 -382 -4
3 1 49 11 102 14 72 23 98 40 110 41 31 781 353 805 351 17 -1 42 -26 88 -86z
m171 -249 c29 -49 52 -93 52 -99 0 -10 -1158 -403 -1188 -403 -13 0 -15 108
-3 165 6 29 15 34 521 227 283 108 526 197 540 197 22 1 33 -12 78 -87z m126
-237 c37 -78 105 -257 109 -287 2 -22 -22 -29 -653 -200 -360 -97 -667 -177
-681 -177 -16 -1 -29 6 -33 14 -12 32 -29 296 -19 306 16 16 1197 408 1223
406 20 -2 31 -14 54 -62z m159 -445 c29 -105 58 -293 48 -303 -11 -11 -1310
-168 -1361 -165 -34 3 -36 5 -58 73 -12 39 -21 79 -20 90 3 17 84 42 658 196
360 98 668 177 685 176 28 -2 31 -6 48 -67z m69 -461 c8 -114 -2 -229 -22
-240 -18 -9 -1091 -169 -1135 -169 -25 0 -37 10 -70 57 -91 129 -161 261 -148
274 9 9 1300 168 1343 166 24 -2 25 -5 32 -88z m-17 -360 c-4 -28 -15 -79 -24
-113 l-16 -61 -420 -97 c-231 -53 -427 -95 -435 -92 -8 3 -59 57 -113 121 -72
84 -96 118 -88 126 12 12 992 164 1064 166 l39 1 -7 -51z m-71 -257 c11 -19
-114 -270 -167 -335 -18 -22 -55 -37 -189 -77 -92 -27 -173 -47 -180 -44 -7 3
-58 62 -113 131 -124 155 -121 151 -112 159 9 9 700 172 734 173 12 1 24 -3
27 -7z m-274 -467 c0 -13 -107 -146 -130 -160 -10 -6 -79 82 -80 102 0 7 42
25 93 42 109 34 117 36 117 16z m-105 -396 c4 -12 3 -25 -2 -29 -22 -21 -122
-70 -127 -62 -8 13 83 112 104 112 10 0 22 -9 25 -21z m63 -106 c11 -16 43
-73 71 -128 39 -77 48 -103 38 -111 -10 -9 -619 -184 -640 -184 -27 0 29 89
141 225 20 25 342 223 364 225 4 0 15 -12 26 -27z m159 -315 c13 -17 70 -155
99 -242 16 -47 21 -73 14 -80 -8 -8 -906 -104 -987 -106 -14 0 -23 6 -23 14 0
18 107 203 123 213 16 11 717 211 743 212 12 0 26 -5 31 -11z m153 -410 c14
-33 60 -223 60 -247 0 -11 -3 -22 -8 -25 -14 -8 -1206 14 -1216 24 -5 5 5 38
27 84 26 55 42 77 59 81 23 5 990 102 1041 104 20 1 30 -5 37 -21z m-23 -334
c100 -6 102 -6 108 -32 22 -106 33 -336 16 -346 -8 -5 -1322 138 -1368 149
-13 3 -23 10 -23 15 0 16 72 204 83 218 9 11 108 12 546 8 295 -4 582 -9 638
-12z m-543 -369 c362 -40 663 -78 669 -84 21 -21 -32 -297 -77 -406 -10 -23
-22 -35 -34 -35 -40 0 -1352 326 -1365 339 -12 12 47 251 64 262 6 4 28 5 48
2 20 -2 332 -37 695 -78z m-137 -419 c366 -91 670 -169 675 -174 6 -6 -18 -64
-64 -153 -90 -174 -106 -199 -127 -199 -31 1 -1193 447 -1201 461 -7 14 14
201 25 219 3 5 10 10 16 10 5 0 309 -74 676 -164z m-140 -357 c307 -116 566
-215 576 -220 9 -6 17 -15 17 -21 0 -18 -223 -398 -233 -398 -9 0 -897 600
-929 628 -15 13 -18 32 -18 119 0 82 3 103 14 103 8 0 265 -95 573 -211z
m-104 -402 c242 -164 427 -295 427 -304 0 -23 -101 -214 -116 -220 -7 -3 -140
60 -295 139 l-281 143 -58 120 c-104 217 -169 449 -118 419 7 -4 205 -137 441
-297z m49 -468 c121 -61 222 -117 225 -124 3 -11 -91 -233 -125 -294 -18 -31
-31 -19 -85 76 -31 55 -101 175 -156 268 -88 149 -104 185 -85 185 3 0 105
-50 226 -111z"/>
</g>
</svg>
