<svg width="1408" height="144" viewBox="0 0 1408 144" fill="none" xmlns="http://www.w3.org/2000/svg">
<!-- FALCON harfleri - Gümüş renk -->
<path d="M1324.06 62H1396.06V79H1324.06V62ZM1325.86 124.2H1407.46V141.6H1305.86V1.59998H1404.66V19H1325.86V124.2Z" fill="#C0C0C0"/>
<path d="M1143.55 141.6V1.59998H1159.95L1252.55 116.6H1243.95V1.59998H1263.95V141.6H1247.55L1154.95 26.6H1163.55V141.6H1143.55Z" fill="#072441"/>
<path d="M1027.77 62H1099.77V79H1027.77V62ZM1029.57 124.2H1111.17V141.6H1009.57V1.59998H1108.37V19H1029.57V124.2Z" fill="#072441"/>
<path d="M918.278 143.2C907.478 143.2 897.545 141.467 888.478 138C879.412 134.4 871.545 129.4 864.878 123C858.212 116.467 853.012 108.867 849.278 100.2C845.545 91.5333 843.678 82 843.678 71.6C843.678 61.2 845.545 51.6667 849.278 43C853.012 34.3333 858.212 26.8 864.878 20.4C871.678 13.8667 879.612 8.86666 888.678 5.39999C897.745 1.8 907.745 0 918.678 0C929.745 0 939.878 1.8 949.078 5.39999C958.278 8.99999 966.078 14.4 972.478 21.6L960.078 34C954.345 28.4 948.078 24.3333 941.278 21.8C934.612 19.1333 927.345 17.8 919.478 17.8C911.478 17.8 904.012 19.1333 897.078 21.8C890.278 24.4667 884.345 28.2 879.278 33C874.345 37.8 870.478 43.5333 867.678 50.2C865.012 56.7333 863.678 63.8667 863.678 71.6C863.678 79.2 865.012 86.3333 867.678 93C870.478 99.5333 874.345 105.267 879.278 110.2C884.345 115 890.278 118.733 897.078 121.4C903.878 124.067 911.278 125.4 919.278 125.4C926.745 125.4 933.878 124.267 940.678 122C947.612 119.6 954.012 115.667 959.878 110.2L971.278 125.4C964.345 131.267 956.212 135.733 946.878 138.8C937.678 141.733 928.145 143.2 918.278 143.2ZM952.078 122.8V70.8H971.278V125.4L952.078 122.8Z" fill="#072441"/>
<path d="M692.773 141.6V1.59998H709.173L801.773 116.6H793.173V1.59998H813.173V141.6H796.773L704.173 26.6H712.773V141.6H692.773Z" fill="#C0C0C0"/>
<path d="M588.005 143.2C577.338 143.2 567.405 141.4 558.205 137.8C549.138 134.2 541.271 129.2 534.605 122.8C527.938 116.267 522.738 108.667 519.005 100C515.271 91.3333 513.405 81.8667 513.405 71.6C513.405 61.3333 515.271 51.8667 519.005 43.2C522.738 34.5333 527.938 27 534.605 20.6C541.271 14.0667 549.138 8.99999 558.205 5.39999C567.271 1.8 577.205 0 588.005 0C598.671 0 608.471 1.8 617.405 5.39999C626.471 8.86666 634.338 13.8667 641.005 20.4C647.805 26.8 653.005 34.3333 656.605 43C660.338 51.6667 662.205 61.2 662.205 71.6C662.205 82 660.338 91.5333 656.605 100.2C653.005 108.867 647.805 116.467 641.005 123C634.338 129.4 626.471 134.4 617.405 138C608.471 141.467 598.671 143.2 588.005 143.2ZM588.005 125.4C595.738 125.4 602.871 124.067 609.405 121.4C616.071 118.733 621.805 115 626.605 110.2C631.538 105.267 635.338 99.5333 638.005 93C640.805 86.4667 642.205 79.3333 642.205 71.6C642.205 63.8667 640.805 56.7333 638.005 50.2C635.338 43.6667 631.538 38 626.605 33.2C621.805 28.2667 616.071 24.4667 609.405 21.8C602.871 19.1333 595.738 17.8 588.005 17.8C580.138 17.8 572.872 19.1333 566.205 21.8C559.672 24.4667 553.938 28.2667 549.005 33.2C544.071 38 540.205 43.6667 537.405 50.2C534.738 56.7333 533.405 63.8667 533.405 71.6C533.405 79.3333 534.738 86.4667 537.405 93C540.205 99.5333 544.071 105.267 549.005 110.2C553.938 115 559.672 118.733 566.205 121.4C572.872 124.067 580.138 125.4 588.005 125.4Z" fill="#C0C0C0"/>

<!-- GEN harfleri - Lacivert renk -->
<path d="M445.803 143.2C435.137 143.2 425.27 141.467 416.203 138C407.27 134.4 399.47 129.4 392.803 123C386.27 116.467 381.137 108.867 377.403 100.2C373.67 91.5333 371.803 82 371.803 71.6C371.803 61.2 373.67 51.6667 377.403 43C381.137 34.3333 386.337 26.8 393.003 20.4C399.67 13.8667 407.47 8.86666 416.403 5.39999C425.47 1.8 435.337 0 446.003 0C456.803 0 466.737 1.86667 475.803 5.6C485.003 9.2 492.803 14.6 499.203 21.8L486.203 34.4C480.87 28.8 474.87 24.6667 468.203 22C461.537 19.2 454.403 17.8 446.803 17.8C438.937 17.8 431.603 19.1333 424.803 21.8C418.137 24.4667 412.337 28.2 407.403 33C402.47 37.8 398.603 43.5333 395.803 50.2C393.137 56.7333 391.803 63.8667 391.803 71.6C391.803 79.3333 393.137 86.5333 395.803 93.2C398.603 99.7333 402.47 105.4 407.403 110.2C412.337 115 418.137 118.733 424.803 121.4C431.603 124.067 438.937 125.4 446.803 125.4C454.403 125.4 461.537 124.067 468.203 121.4C474.87 118.6 480.87 114.333 486.203 108.6L499.203 121.2C492.803 128.4 485.003 133.867 475.803 137.6C466.737 141.333 456.737 143.2 445.803 143.2Z" fill="#C0C0C0"/>
<path d="M266.992 141.6V1.59998H286.992V124.2H362.792V141.6H266.992Z" fill="#C0C0C0"/>
<path d="M99.3076 141.6L162.708 1.59998H182.508L246.108 141.6H225.108L168.508 12.8H176.508L119.908 141.6H99.3076ZM126.308 106.6L131.708 90.6H210.508L216.308 106.6H126.308Z" fill="#C0C0C0"/>
<path d="M18 67.8H90.2V85H18V67.8ZM20 141.6H0V1.59998H98.8V19H20V141.6Z" fill="#C0C0C0"/>
</svg>
